<?xml version="1.0" encoding="utf-8"?>
<!-- Generator: Adobe Illustrator 22.1.0, SVG Export Plug-In . SVG Version: 6.00 Build 0)  -->
<svg version="1.1" id="katman_1" xmlns="http://www.w3.org/2000/svg" xmlns:xlink="http://www.w3.org/1999/xlink" x="0px" y="0px"
	 viewBox="0 0 1055.8 177.2" style="enable-background:new 0 0 1055.8 177.2;" xml:space="preserve">
<style type="text/css">
	.st0{fill:#E52521;}
	.st1{fill:#606060;}
</style>
<polygon class="st0" points="0,0 45.8,176.6 98.9,176.6 128.5,76.8 160.6,176.6 212.3,176.6 257.7,0 200.1,0 181,110.3 148.5,0 
	110.4,0 78.3,109.2 56.8,0 "/>
<polygon class="st0" points="267.9,0 233.7,125.4 233.7,176.6 358.5,176.6 358.5,138.1 285.8,137.7 285.8,106.2 349.1,106.2 
	349.1,69.1 287,69.1 287,37.8 358.5,37.8 358.5,0 "/>
<path class="st0" d="M467.4,0l44.9,64.3c-4.1,6.6-18.6,18.5-18.6,18.5s29.8,5.4,30.7,39.6c1.4,49.2-55,54.2-55,54.2H368.3V0H467.4z
	 M420.5,99.9v40.5h35.3c0,0,14.8-2.4,14.8-20.4c0-20.2-19.7-20.1-19.7-20.1L420.5,99.9z M420.5,36.3v34.9h31.3
	c0,0,12.7-2.1,12.7-17.6c0-17.4-17-17.3-17-17.3H420.5z"/>
<polygon class="st1" points="476.6,0 541.6,92.6 542.2,176.6 556.6,176.6 556.6,91.8 623.1,0 605.1,0 549.3,78.4 493.9,0 "/>
<polygon class="st1" points="563.7,176.6 635.6,0 649.9,0 721.6,176.6 704.5,176.6 642.2,18.2 579.5,176.6 "/>
<path class="st1" d="M706,113.9V0h72.8c0,0,48.2,1.7,48.2,53.7c0,56.3-59.3,50.2-59.3,50.2h-48.2v42.6L706,113.9z M719.4,14v74.3
	h60.7c5.3,0,10.5-1.1,15.2-3.4c8.1-4.1,17.4-12.9,17.4-32.2c0-37.4-39-38.7-39-38.7H719.4z"/>
<polygon class="st1" points="788.5,176.6 860.1,0 876.2,0 948,176.6 931.1,176.6 868.2,18.5 805.5,176.6 "/>
<path class="st1" d="M930.6,114.3v-0.5V0h70.8c0,0,50.6-2.4,50.6,48.7c0,48.4-41.3,55.3-41.3,55.3l30.1,44.1l-16.6,0.6L993.9,104
	h-49.1v43.1L930.6,114.3z M944.7,11.4v76.8h58.3c7.2,0,14.3-2,20.2-6.2c7.3-5.3,14.6-14.8,14.6-31.9c0-37.4-39-38.7-39-38.7
	L944.7,11.4L944.7,11.4z"/>
<g>
	<g>
		<path class="st0" d="M956.1,173.5c0-1.2,0.3-2.1,1-2.7c0.6-0.6,1.6-0.9,2.8-0.9s2.1,0.3,2.8,0.9c0.7,0.6,1,1.5,1,2.7
			c0,1.1-0.3,2-1,2.7c-0.7,0.6-1.6,1-2.8,1s-2.1-0.3-2.8-0.9C956.5,175.6,956.1,174.7,956.1,173.5z"/>
		<path class="st0" d="M979.3,177c-7.5,0-11.2-4.1-11.2-12.3c0-4.1,1-7.2,3-9.3s4.9-3.2,8.7-3.2c2.8,0,5.3,0.5,7.5,1.6l-1.9,5.1
			c-1-0.4-2-0.8-2.9-1c-0.9-0.3-1.8-0.4-2.7-0.4c-3.4,0-5.1,2.4-5.1,7.3c0,4.7,1.7,7,5.1,7c1.3,0,2.4-0.2,3.5-0.5s2.2-0.9,3.2-1.6
			v5.6c-1.1,0.7-2.1,1.1-3.2,1.4C982.3,176.9,981,177,979.3,177z"/>
		<path class="st0" d="M1013.9,164.6c0,3.9-1,6.9-3.1,9.2c-2.1,2.2-4.9,3.3-8.6,3.3c-2.3,0-4.3-0.5-6.1-1.5s-3.1-2.4-4.1-4.3
			c-1-1.9-1.4-4.1-1.4-6.6c0-3.9,1-6.9,3.1-9.1c2-2.2,4.9-3.3,8.6-3.3c2.3,0,4.3,0.5,6.1,1.5s3.1,2.4,4.1,4.3
			S1013.9,162.1,1013.9,164.6z M997.4,164.6c0,2.4,0.4,4.2,1.2,5.4s2,1.8,3.8,1.8c1.7,0,3-0.6,3.8-1.8s1.1-3,1.1-5.4
			s-0.4-4.1-1.2-5.4c-0.8-1.2-2-1.8-3.8-1.8c-1.7,0-3,0.6-3.8,1.8C997.7,160.4,997.4,162.2,997.4,164.6z"/>
		<path class="st0" d="M1040.8,176.6h-6.5v-14c0-1.7-0.3-3-0.9-3.9s-1.5-1.3-2.7-1.3c-1.7,0-2.9,0.6-3.6,1.9
			c-0.8,1.2-1.1,3.3-1.1,6.1v11.3h-6.5v-24h5l0.9,3.1h0.4c0.6-1.1,1.6-2,2.8-2.6c1.2-0.6,2.6-0.9,4.2-0.9c3.6,0,6,1.2,7.3,3.5h0.6
			c0.6-1.1,1.6-2,2.8-2.6c1.3-0.6,2.7-0.9,4.2-0.9c2.7,0,4.8,0.7,6.2,2.1s2.1,3.6,2.1,6.7v15.6h-6.6v-14c0-1.7-0.3-3-0.9-3.9
			s-1.5-1.3-2.7-1.3c-1.6,0-2.8,0.6-3.6,1.7c-0.8,1.1-1.2,2.9-1.2,5.4L1040.8,176.6L1040.8,176.6L1040.8,176.6z"/>
	</g>
</g>
</svg>
